<svg width="32" height="32" viewBox="0 0 32 32" fill="none" xmlns="http://www.w3.org/2000/svg">
<path d="M6.38078 6.66667H24.3C26.1202 6.66667 27.4054 8.44986 26.8298 10.1766L24.6076 16.8433C24.2446 17.9322 23.2256 18.6667 22.0778 18.6667H8.09506M6.38078 6.66667L6.32691 6.28954C6.13924 4.97581 5.01412 4 3.68705 4H2.6665M6.38078 6.66667L8.09506 18.6667M8.09506 18.6667L8.33943 20.3771C8.5271 21.6909 9.65222 22.6667 10.9793 22.6667H22.6665M22.6665 22.6667C21.1937 22.6667 19.9998 23.8606 19.9998 25.3333C19.9998 26.8061 21.1937 28 22.6665 28C24.1393 28 25.3332 26.8061 25.3332 25.3333C25.3332 23.8606 24.1393 22.6667 22.6665 22.6667ZM14.6665 25.3333C14.6665 26.8061 13.4726 28 11.9998 28C10.5271 28 9.33317 26.8061 9.33317 25.3333C9.33317 23.8606 10.5271 22.6667 11.9998 22.6667C13.4726 22.6667 14.6665 23.8606 14.6665 25.3333Z" stroke="#FF4200" stroke-width="2.18293" stroke-linecap="round" stroke-linejoin="round"/>
</svg>
