<svg width="20" height="20" viewBox="0 0 20 20" fill="none" xmlns="http://www.w3.org/2000/svg">
<g clip-path="url(#clip0_25_364)">
<path d="M18.1644 3.86868C16.1918 2.53144 13.6693 3.32602 12.5293 5.64263L9.65567 11.4882C8.82418 13.1763 9.89465 13.7661 11.0882 14.6066L13.8533 16.4806C14.7897 17.1149 15.9857 16.7384 16.5258 15.6402L19.48 9.63272C20.4723 7.61401 19.8835 5.0341 18.1644 3.86868Z" fill="#EA4335"/>
<path d="M14.913 6.28821L12.1479 4.41408C10.6215 3.41904 9.75704 3.35316 9.1304 4.52289L5.0522 12.8168C3.91345 15.1319 4.59126 18.0927 6.56275 19.427C8.28181 20.5924 10.4788 19.901 11.4713 17.8822L15.6275 9.42793C16.17 8.32839 15.8494 6.92243 14.913 6.28821Z" fill="#FBBC04"/>
<path d="M15.4451 2.02463L13.5029 0.707295C11.3547 -0.748668 8.60783 0.114635 7.36791 2.6373L3.67009 10.158C3.12392 11.2677 3.44822 12.6879 4.39314 13.3278L6.56814 14.8025C7.6422 15.5313 9.01501 15.0989 9.63564 13.8376L13.8601 5.24583C14.7355 3.46629 16.6728 2.85638 18.1882 3.88436L15.4451 2.02463Z" fill="#34A853"/>
<path d="M7.89327 4.78932L5.79382 3.36905C4.85749 2.7362 3.66147 3.11125 3.12139 4.20804L0.60241 9.31923C-0.637433 11.8347 0.0977227 15.0532 2.24593 16.505L3.84429 17.5859L5.78288 18.8973L6.62413 19.4657C5.13061 18.2917 4.65632 15.9394 5.56944 14.0868L6.22179 12.7638L8.61014 7.91749C9.14905 6.82363 8.82843 5.42216 7.89327 4.78932Z" fill="#4285F4"/>
</g>
<defs>
<clipPath id="clip0_25_364">
<rect width="20" height="20" fill="white"/>
</clipPath>
</defs>
</svg>
