<svg width="24" height="24" viewBox="0 0 24 24" fill="none" xmlns="http://www.w3.org/2000/svg">
<path d="M19.0201 4.975C17.631 3.5866 15.8615 2.64126 13.9352 2.25853C12.0089 1.8758 10.0124 2.07286 8.19814 2.8248C6.38385 3.57674 4.83328 4.84978 3.74249 6.48295C2.65171 8.11612 2.0697 10.0361 2.07007 12C2.07007 14.6341 3.1161 17.1603 4.97819 19.0233C6.84029 20.8864 9.36601 21.9337 12.0001 21.935C13.3036 21.9356 14.5945 21.6808 15.8001 21.185C17.0018 20.6777 18.0949 19.9445 19.0201 19.025C19.9427 18.1025 20.6746 17.0073 21.1739 15.802C21.6733 14.5966 21.9303 13.3047 21.9303 12C21.9303 10.6953 21.6733 9.40339 21.1739 8.19803C20.6746 6.99267 19.9427 5.89748 19.0201 4.975ZM18.3201 18.315C16.8901 19.7511 15.0138 20.6575 13.0001 20.885V14.325H14.8801C15.1453 14.325 15.3996 14.2196 15.5872 14.0321C15.7747 13.8446 15.8801 13.5902 15.8801 13.325C15.8801 13.0598 15.7747 12.8054 15.5872 12.6179C15.3996 12.4304 15.1453 12.325 14.8801 12.325H13.0001V9.585C13.0001 9.31979 13.1054 9.06543 13.293 8.8779C13.4805 8.69036 13.7349 8.585 14.0001 8.585H15.2001C15.4653 8.585 15.7196 8.47965 15.9072 8.29211C16.0947 8.10457 16.2001 7.85022 16.2001 7.585C16.2001 7.31979 16.0947 7.06543 15.9072 6.8779C15.7196 6.69036 15.4653 6.585 15.2001 6.585H13.5001C12.837 6.585 12.2011 6.84839 11.7323 7.31724C11.2635 7.78608 11.0001 8.42196 11.0001 9.085V12.325H9.13007C8.86485 12.325 8.6105 12.4304 8.42296 12.6179C8.23543 12.8054 8.13007 13.0598 8.13007 13.325C8.13007 13.5902 8.23543 13.8446 8.42296 14.0321C8.6105 14.2196 8.86485 14.325 9.13007 14.325H11.0001V20.885C9.14296 20.6731 7.39935 19.8832 6.01552 18.6267C4.63169 17.3702 3.67758 15.7107 3.28797 13.8826C2.89836 12.0545 3.09293 10.1502 3.8442 8.43866C4.59547 6.72713 5.86547 5.29488 7.47482 4.34422C9.08416 3.39356 10.9515 2.97254 12.8131 3.14062C14.6747 3.3087 16.4364 4.0574 17.8494 5.28095C19.2625 6.5045 20.2554 8.14106 20.6879 9.95948C21.1205 11.7779 20.9708 13.6863 20.2601 15.415C19.8074 16.4982 19.1485 17.4831 18.3201 18.315Z" fill="#699BF7"/>
</svg>
