<svg width="352" height="102" viewBox="0 0 352 102" fill="none" xmlns="http://www.w3.org/2000/svg">
<rect width="24" height="24" transform="translate(0 3)" fill="#FFFCFC"/>
<path d="M4 21C3.71667 21 3.47933 20.904 3.288 20.712C3.096 20.5207 3 20.2833 3 20C3 19.7167 3.096 19.4793 3.288 19.288C3.47933 19.096 3.71667 19 4 19H20C20.2833 19 20.5207 19.096 20.712 19.288C20.904 19.4793 21 19.7167 21 20C21 20.2833 20.904 20.5207 20.712 20.712C20.5207 20.904 20.2833 21 20 21H4ZM4 16C3.71667 16 3.47933 15.904 3.288 15.712C3.096 15.5207 3 15.2833 3 15C3 14.7167 3.096 14.479 3.288 14.287C3.47933 14.0957 3.71667 14 4 14H20C20.2833 14 20.5207 14.0957 20.712 14.287C20.904 14.479 21 14.7167 21 15C21 15.2833 20.904 15.5207 20.712 15.712C20.5207 15.904 20.2833 16 20 16H4ZM4 11C3.71667 11 3.47933 10.9043 3.288 10.713C3.096 10.521 3 10.2833 3 10C3 9.71667 3.096 9.479 3.288 9.287C3.47933 9.09567 3.71667 9 4 9H20C20.2833 9 20.5207 9.09567 20.712 9.287C20.904 9.479 21 9.71667 21 10C21 10.2833 20.904 10.521 20.712 10.713C20.5207 10.9043 20.2833 11 20 11H4Z" fill="black"/>
<circle cx="335.5" cy="16.5" r="13.5" fill="#FFFCFC"/>
<rect width="32" height="32" transform="translate(320)" fill="#FFFCFC"/>
<path fill-rule="evenodd" clip-rule="evenodd" d="M336 28C342.627 28 348 22.6273 348 16C348 9.37266 342.627 3.99999 336 3.99999C329.373 3.99999 324 9.37266 324 16C324 22.6273 329.373 28 336 28ZM336 29.3333C343.364 29.3333 349.333 23.364 349.333 16C349.333 8.63599 343.364 2.66666 336 2.66666C328.636 2.66666 322.667 8.63599 322.667 16C322.667 23.364 328.636 29.3333 336 29.3333Z" fill="black"/>
<path d="M328 23.7533C328 23.0647 328.515 22.4827 329.2 22.4067C334.343 21.8373 337.68 21.8887 342.812 22.4193C343.068 22.4462 343.311 22.5472 343.511 22.7099C343.711 22.8726 343.859 23.0899 343.937 23.3354C344.016 23.5809 344.021 23.8439 343.952 24.0923C343.883 24.3406 343.744 24.5636 343.551 24.734C337.494 30.0133 334.033 29.9407 328.427 24.7393C328.153 24.486 328 24.1253 328 23.7533Z" fill="black"/>
<path fill-rule="evenodd" clip-rule="evenodd" d="M342.744 23.082C337.652 22.5553 334.364 22.506 329.273 23.0693C329.105 23.0888 328.951 23.1695 328.839 23.2958C328.727 23.4221 328.666 23.5853 328.667 23.754C328.667 23.9446 328.746 24.1253 328.88 24.2506C331.659 26.828 333.764 27.9926 335.822 28C337.887 28.0073 340.106 26.852 343.113 24.232C343.208 24.147 343.277 24.036 343.311 23.9127C343.344 23.7893 343.342 23.6588 343.302 23.5371C343.263 23.4153 343.19 23.3076 343.09 23.2269C342.991 23.1462 342.871 23.0954 342.744 23.082ZM329.127 21.744C334.324 21.1686 337.709 21.2206 342.881 21.756C343.267 21.7962 343.632 21.948 343.933 22.1927C344.234 22.4375 344.456 22.7645 344.574 23.1339C344.692 23.5033 344.699 23.8989 344.595 24.2724C344.491 24.6458 344.281 24.9809 343.99 25.2366C340.94 27.8953 338.399 29.3433 335.818 29.3333C333.229 29.324 330.802 27.8513 327.974 25.228C327.772 25.0394 327.61 24.8112 327.5 24.5574C327.39 24.3037 327.333 24.03 327.333 23.7533C327.333 23.2563 327.515 22.7763 327.846 22.4054C328.177 22.0346 328.633 21.7995 329.127 21.744Z" fill="black"/>
<path d="M341.333 13.3333C341.333 14.7478 340.772 16.1044 339.771 17.1046C338.771 18.1048 337.415 18.6667 336 18.6667C334.586 18.6667 333.229 18.1048 332.229 17.1046C331.229 16.1044 330.667 14.7478 330.667 13.3333C330.667 11.9188 331.229 10.5623 332.229 9.5621C333.229 8.5619 334.586 8 336 8C337.415 8 338.771 8.5619 339.771 9.5621C340.772 10.5623 341.333 11.9188 341.333 13.3333Z" fill="black"/>
<path fill-rule="evenodd" clip-rule="evenodd" d="M336 17.3333C337.061 17.3333 338.078 16.9119 338.829 16.1618C339.579 15.4116 340 14.3942 340 13.3333C340 12.2725 339.579 11.2551 338.829 10.5049C338.078 9.75476 337.061 9.33333 336 9.33333C334.939 9.33333 333.922 9.75476 333.172 10.5049C332.422 11.2551 332 12.2725 332 13.3333C332 14.3942 332.422 15.4116 333.172 16.1618C333.922 16.9119 334.939 17.3333 336 17.3333ZM336 18.6667C337.415 18.6667 338.771 18.1048 339.771 17.1046C340.772 16.1044 341.333 14.7478 341.333 13.3333C341.333 11.9188 340.772 10.5623 339.771 9.5621C338.771 8.5619 337.415 8 336 8C334.586 8 333.229 8.5619 332.229 9.5621C331.229 10.5623 330.667 11.9188 330.667 13.3333C330.667 14.7478 331.229 16.1044 332.229 17.1046C333.229 18.1048 334.586 18.6667 336 18.6667Z" fill="black"/>
<mask id="mask0_1_108" style="mask-type:alpha" maskUnits="userSpaceOnUse" x="323" y="3" width="27" height="27">
<circle cx="336.5" cy="16.5" r="13.5" fill="#D9D9D9"/>
</mask>
<g mask="url(#mask0_1_108)">
</g>
<g filter="url(#filter0_d_1_108)">
<path d="M4 79.5C4 67.0736 14.0736 57 26.5 57H328.5C340.926 57 351 67.0736 351 79.5C351 91.9264 340.926 102 328.5 102H26.5C14.0736 102 4 91.9264 4 79.5Z" fill="#FFFCFC"/>
<path d="M4 79.5C4 67.0736 14.0736 57 26.5 57H328.5C340.926 57 351 67.0736 351 79.5C351 91.9264 340.926 102 328.5 102H26.5C14.0736 102 4 91.9264 4 79.5Z" stroke="black" stroke-opacity="0.5" stroke-width="0.5"/>
</g>
<rect width="24" height="24" transform="translate(15 67)" fill="#FFFCFC"/>
<path d="M30.5 81H29.71L29.43 80.73C30.0549 80.004 30.5117 79.1488 30.7675 78.2256C31.0234 77.3025 31.072 76.3342 30.91 75.39C30.44 72.61 28.12 70.39 25.32 70.05C24.3356 69.9255 23.3358 70.0278 22.397 70.3491C21.4582 70.6704 20.6054 71.2022 19.9038 71.9038C19.2022 72.6054 18.6704 73.4583 18.3491 74.397C18.0277 75.3358 17.9254 76.3356 18.05 77.32C18.39 80.12 20.61 82.44 23.39 82.91C24.3341 83.0721 25.3024 83.0234 26.2256 82.7676C27.1487 82.5117 28.0039 82.055 28.73 81.43L29 81.71V82.5L33.25 86.75C33.66 87.16 34.33 87.16 34.74 86.75C35.15 86.34 35.15 85.67 34.74 85.26L30.5 81ZM24.5 81C22.01 81 20 78.99 20 76.5C20 74.01 22.01 72 24.5 72C26.99 72 29 74.01 29 76.5C29 78.99 26.99 81 24.5 81Z" fill="black"/>
<defs>
<filter id="filter0_d_1_108" x="-4.25" y="56.75" width="363.5" height="61.5" filterUnits="userSpaceOnUse" color-interpolation-filters="sRGB">
<feFlood flood-opacity="0" result="BackgroundImageFix"/>
<feColorMatrix in="SourceAlpha" type="matrix" values="0 0 0 0 0 0 0 0 0 0 0 0 0 0 0 0 0 0 127 0" result="hardAlpha"/>
<feOffset dy="8"/>
<feGaussianBlur stdDeviation="4"/>
<feColorMatrix type="matrix" values="0 0 0 0 0 0 0 0 0 0 0 0 0 0 0 0 0 0 0.35 0"/>
<feBlend mode="normal" in2="BackgroundImageFix" result="effect1_dropShadow_1_108"/>
<feBlend mode="normal" in="SourceGraphic" in2="effect1_dropShadow_1_108" result="shape"/>
</filter>
</defs>
</svg>
