<svg width="51" height="41" viewBox="0 0 51 41" fill="none" xmlns="http://www.w3.org/2000/svg">
<path d="M18.6056 3.37113H32.3953V28.1489H18.6056V3.37113Z" fill="#FF5F00"/>
<path d="M9.28105 40.6203V37.9938C9.28105 36.9867 8.66804 36.3302 7.61731 36.3302C7.09205 36.3302 6.52291 36.5053 6.12886 37.0745C5.82256 36.5929 5.38484 36.3302 4.72816 36.3302C4.29024 36.3302 3.85272 36.4614 3.50234 36.943V36.4178H2.58303V40.6203H3.50234V38.3001C3.50234 37.556 3.89639 37.2057 4.5094 37.2057C5.12201 37.2057 5.42871 37.5997 5.42871 38.3001V40.6203H6.34802V38.3001C6.34802 37.556 6.78554 37.2057 7.35468 37.2057C7.96769 37.2057 8.27399 37.5997 8.27399 38.3001V40.6203H9.28105ZM22.8954 36.4178H21.4072V35.1483H20.4879V36.4178H19.6561V37.2493H20.4877V39.1757C20.4877 40.1389 20.8817 40.7078 21.9325 40.7078C22.3265 40.7078 22.764 40.5766 23.0707 40.4015L22.8079 39.6134C22.5453 39.7885 22.239 39.8324 22.02 39.8324C21.5823 39.8324 21.4072 39.5698 21.4072 39.1318V37.2493H22.8954V36.4178ZM30.6879 36.33C30.1626 36.33 29.8124 36.5929 29.5935 36.943V36.4178H28.6741V40.6203H29.5935V38.2564C29.5935 37.556 29.8998 37.162 30.4689 37.162C30.644 37.162 30.8629 37.2059 31.038 37.2495L31.3007 36.3741C31.1256 36.3302 30.8629 36.3302 30.6879 36.3302V36.33ZM18.9119 36.7679C18.474 36.4614 17.8612 36.3302 17.2045 36.3302C16.154 36.3302 15.4536 36.8555 15.4536 37.6873C15.4536 38.3878 15.9789 38.7817 16.8982 38.9131L17.3359 38.9569C17.8175 39.0443 18.0801 39.1757 18.0801 39.3947C18.0801 39.701 17.7299 39.9199 17.1169 39.9199C16.5041 39.9199 16.0225 39.701 15.716 39.4822L15.2783 40.1826C15.7599 40.5327 16.4166 40.7078 17.0731 40.7078C18.2989 40.7078 18.9994 40.1389 18.9994 39.3508C18.9994 38.6066 18.4303 38.2125 17.5547 38.0813L17.1169 38.0374C16.7229 37.9936 16.4166 37.9062 16.4166 37.6436C16.4166 37.3371 16.7229 37.162 17.2045 37.162C17.7299 37.162 18.2552 37.3808 18.5178 37.5122L18.9119 36.7679ZM43.3395 36.3302C42.814 36.3302 42.4638 36.5929 42.2449 36.943V36.4178H41.3256V40.6203H42.2449V38.2564C42.2449 37.556 42.5514 37.162 43.1203 37.162C43.2956 37.162 43.5146 37.2059 43.6896 37.2495L43.9523 36.3741C43.7772 36.3302 43.5146 36.3302 43.3395 36.3302ZM31.6072 38.519C31.6072 39.7885 32.4826 40.7078 33.8398 40.7078C34.4526 40.7078 34.8904 40.5766 35.3281 40.2264L34.8904 39.4822C34.5402 39.7448 34.19 39.8761 33.796 39.8761C33.0517 39.8761 32.5265 39.3508 32.5265 38.519C32.5265 37.7311 33.0517 37.2057 33.796 37.162C34.19 37.162 34.5402 37.2932 34.8904 37.556L35.3281 36.8118C34.8904 36.4614 34.4526 36.3302 33.8398 36.3302C32.4826 36.3302 31.6072 37.2495 31.6072 38.519ZM40.0999 38.519V36.4178H39.1806V36.943C38.8741 36.5492 38.4364 36.3302 37.8673 36.3302C36.6853 36.3302 35.766 37.2495 35.766 38.519C35.766 39.7885 36.6853 40.7078 37.8673 40.7078C38.4801 40.7078 38.918 40.4891 39.1806 40.095V40.6203H40.0999V38.519ZM36.729 38.519C36.729 37.7748 37.2106 37.162 37.9985 37.162C38.7427 37.162 39.2682 37.7311 39.2682 38.519C39.2682 39.2633 38.7427 39.8761 37.9985 39.8761C37.2106 39.8322 36.729 39.2633 36.729 38.519ZM25.7411 36.3302C24.5153 36.3302 23.6397 37.2057 23.6397 38.519C23.6397 39.8324 24.5151 40.7078 25.7848 40.7078C26.3976 40.7078 27.0106 40.5327 27.4922 40.1389L27.0543 39.4822C26.7041 39.7448 26.2664 39.9199 25.8287 39.9199C25.2595 39.9199 24.6904 39.6573 24.559 38.9129H27.6673V38.5629C27.7112 37.2057 26.9231 36.3302 25.7409 36.3302H25.7411ZM25.7411 37.1181C26.3101 37.1181 26.7043 37.4685 26.7916 38.1252H24.6028C24.6904 37.556 25.0844 37.1181 25.7411 37.1181ZM48.5488 38.519V34.7542H47.6295V36.943C47.323 36.5492 46.8853 36.3302 46.3162 36.3302C45.1342 36.3302 44.2149 37.2495 44.2149 38.519C44.2149 39.7885 45.1342 40.7078 46.3162 40.7078C46.9292 40.7078 47.3669 40.4891 47.6295 40.095V40.6203H48.5488V38.519ZM45.1781 38.519C45.1781 37.7748 45.6595 37.162 46.4476 37.162C47.1918 37.162 47.7171 37.7311 47.7171 38.519C47.7171 39.2633 47.1918 39.8761 46.4476 39.8761C45.6595 39.8322 45.1781 39.2633 45.1781 38.519ZM14.4465 38.519V36.4178H13.5272V36.943C13.2207 36.5492 12.783 36.3302 12.2139 36.3302C11.0319 36.3302 10.1126 37.2495 10.1126 38.519C10.1126 39.7885 11.0319 40.7078 12.2139 40.7078C12.8269 40.7078 13.2646 40.4891 13.5272 40.095V40.6203H14.4465V38.519ZM11.0319 38.519C11.0319 37.7748 11.5135 37.162 12.3014 37.162C13.0456 37.162 13.5711 37.7311 13.5711 38.519C13.5711 39.2633 13.0456 39.8761 12.3014 39.8761C11.5135 39.8322 11.0319 39.2633 11.0319 38.519Z" fill="white"/>
<path d="M19.4808 15.7597C19.4808 10.7254 21.8447 6.2601 25.4781 3.37074C22.8079 1.26949 19.4372 0 15.7599 0C7.04799 0 0 7.04799 0 15.7597C0 24.4712 7.04799 31.5194 15.7597 31.5194C19.437 31.5194 22.8077 30.25 25.4781 28.1485C21.8447 25.303 19.4808 20.794 19.4808 15.7597Z" fill="#EB001B"/>
<path d="M50.9998 15.7597C50.9998 24.4712 43.9518 31.5194 35.2401 31.5194C31.5629 31.5194 28.1921 30.25 25.5217 28.1485C29.199 25.2593 31.5192 20.794 31.5192 15.7597C31.5192 10.7254 29.1551 6.2601 25.5217 3.37074C28.1919 1.26949 31.5629 0 35.2401 0C43.9518 0 51 7.09186 51 15.7597H50.9998Z" fill="#F79E1B"/>
</svg>
